<mxfile host="app.diagrams.net" agent="Mozilla/5.0 (Windows NT 10.0; Win64; x64) AppleWebKit/537.36 (KHTML, like Gecko) Chrome/128.0.0.0 YaBrowser/24.10.0.0 Safari/537.36" version="24.8.6">
  <diagram name="Страница — 1" id="FZuVYSKQKKseB5JXQPXO">
    <mxGraphModel dx="1386" dy="783" grid="1" gridSize="10" guides="1" tooltips="1" connect="1" arrows="1" fold="1" page="1" pageScale="1" pageWidth="827" pageHeight="1169" math="0" shadow="0">
      <root>
        <mxCell id="0" />
        <mxCell id="1" parent="0" />
        <mxCell id="YAV5CIgd_lY1n8gO6L1_-1" value="" style="edgeStyle=orthogonalEdgeStyle;rounded=0;orthogonalLoop=1;jettySize=auto;html=1;" edge="1" parent="1" source="YAV5CIgd_lY1n8gO6L1_-2" target="YAV5CIgd_lY1n8gO6L1_-5">
          <mxGeometry relative="1" as="geometry" />
        </mxCell>
        <mxCell id="YAV5CIgd_lY1n8gO6L1_-2" value="Начало" style="strokeWidth=2;html=1;shape=mxgraph.flowchart.terminator;whiteSpace=wrap;" vertex="1" parent="1">
          <mxGeometry x="410" y="90" width="130" height="40" as="geometry" />
        </mxCell>
        <mxCell id="YAV5CIgd_lY1n8gO6L1_-3" value="Конец" style="strokeWidth=2;html=1;shape=mxgraph.flowchart.terminator;whiteSpace=wrap;" vertex="1" parent="1">
          <mxGeometry x="410" y="770" width="130" height="40" as="geometry" />
        </mxCell>
        <mxCell id="YAV5CIgd_lY1n8gO6L1_-4" value="" style="edgeStyle=orthogonalEdgeStyle;rounded=0;orthogonalLoop=1;jettySize=auto;html=1;" edge="1" parent="1" source="YAV5CIgd_lY1n8gO6L1_-5" target="YAV5CIgd_lY1n8gO6L1_-7">
          <mxGeometry relative="1" as="geometry" />
        </mxCell>
        <mxCell id="YAV5CIgd_lY1n8gO6L1_-5" value="Ввод: CAPEC, CWE, результат калькулятора CVSS, Инциденты" style="shape=parallelogram;perimeter=parallelogramPerimeter;whiteSpace=wrap;html=1;fixedSize=1;" vertex="1" parent="1">
          <mxGeometry x="390" y="170" width="170" height="60" as="geometry" />
        </mxCell>
        <mxCell id="YAV5CIgd_lY1n8gO6L1_-6" value="" style="edgeStyle=orthogonalEdgeStyle;rounded=0;orthogonalLoop=1;jettySize=auto;html=1;" edge="1" parent="1" source="YAV5CIgd_lY1n8gO6L1_-7" target="YAV5CIgd_lY1n8gO6L1_-9">
          <mxGeometry relative="1" as="geometry" />
        </mxCell>
        <mxCell id="YAV5CIgd_lY1n8gO6L1_-7" value="ПО обращается к калькулятору CVSS для генерации регламентов" style="rounded=0;whiteSpace=wrap;html=1;" vertex="1" parent="1">
          <mxGeometry x="347.5" y="270" width="255" height="60" as="geometry" />
        </mxCell>
        <mxCell id="YAV5CIgd_lY1n8gO6L1_-14" value="" style="edgeStyle=orthogonalEdgeStyle;rounded=0;orthogonalLoop=1;jettySize=auto;html=1;" edge="1" parent="1" source="YAV5CIgd_lY1n8gO6L1_-9" target="YAV5CIgd_lY1n8gO6L1_-12">
          <mxGeometry relative="1" as="geometry" />
        </mxCell>
        <mxCell id="YAV5CIgd_lY1n8gO6L1_-9" value="Создание файла csv таблицы &quot;Обнаружение и регистрация инцидентов&quot;" style="rounded=0;whiteSpace=wrap;html=1;" vertex="1" parent="1">
          <mxGeometry x="350" y="370" width="250" height="50" as="geometry" />
        </mxCell>
        <mxCell id="YAV5CIgd_lY1n8gO6L1_-10" value="" style="edgeStyle=orthogonalEdgeStyle;rounded=0;orthogonalLoop=1;jettySize=auto;html=1;" edge="1" parent="1" source="YAV5CIgd_lY1n8gO6L1_-11" target="YAV5CIgd_lY1n8gO6L1_-3">
          <mxGeometry relative="1" as="geometry" />
        </mxCell>
        <mxCell id="YAV5CIgd_lY1n8gO6L1_-11" value="Вывод: список файлов CSV" style="shape=parallelogram;perimeter=parallelogramPerimeter;whiteSpace=wrap;html=1;fixedSize=1;" vertex="1" parent="1">
          <mxGeometry x="375" y="650" width="200" height="60" as="geometry" />
        </mxCell>
        <mxCell id="YAV5CIgd_lY1n8gO6L1_-15" value="" style="edgeStyle=orthogonalEdgeStyle;rounded=0;orthogonalLoop=1;jettySize=auto;html=1;" edge="1" parent="1" source="YAV5CIgd_lY1n8gO6L1_-12" target="YAV5CIgd_lY1n8gO6L1_-13">
          <mxGeometry relative="1" as="geometry" />
        </mxCell>
        <mxCell id="YAV5CIgd_lY1n8gO6L1_-12" value="Создание файла csv таблицы &quot;Реагирование на инциденты&quot;" style="rounded=0;whiteSpace=wrap;html=1;" vertex="1" parent="1">
          <mxGeometry x="350" y="470" width="250" height="50" as="geometry" />
        </mxCell>
        <mxCell id="YAV5CIgd_lY1n8gO6L1_-16" value="" style="edgeStyle=orthogonalEdgeStyle;rounded=0;orthogonalLoop=1;jettySize=auto;html=1;" edge="1" parent="1" source="YAV5CIgd_lY1n8gO6L1_-13" target="YAV5CIgd_lY1n8gO6L1_-11">
          <mxGeometry relative="1" as="geometry" />
        </mxCell>
        <mxCell id="YAV5CIgd_lY1n8gO6L1_-13" value="Создание файла csv таблицы &quot;Ликвидация последствий инцидентов&quot;" style="rounded=0;whiteSpace=wrap;html=1;" vertex="1" parent="1">
          <mxGeometry x="350" y="559.5" width="250" height="50" as="geometry" />
        </mxCell>
      </root>
    </mxGraphModel>
  </diagram>
</mxfile>
